{
  "accessors": [
    {
      "bufferView": 2,
      "componentType": 5126,
      "count": 11526,
      "max": [
        0.833899974822998,
        4.957399845123291,
        19.283300399780273
      ],
      "min": [
        -0.8744999766349792,
        -1.8799999952316284,
        1.4569000005722046
      ],
      "type": "VEC3"
    },
    {
      "bufferView": 2,
      "byteOffset": 138312,
      "componentType": 5126,
      "count": 11526,
      "max": [
        1.0,
        1.0,
        1.0
      ],
      "min": [
        -1.0,
        -1.0,
        -1.0
      ],
      "type": "VEC3"
    },
    {
      "bufferView": 1,
      "componentType": 5126,
      "count": 11526,
      "max": [
        0.9979000091552734,
        0.9984999895095825
      ],
      "min": [
        0.008200000040233135,
        0.0018000602722167969
      ],
      "type": "VEC2"
    },
    {
      "bufferView": 0,
      "componentType": 5125,
      "count": 35994,
      "type": "SCALAR"
    }
  ],
  "asset": {
    "extras": {
      "author": "SPARXS (https://sketchfab.com/SPARXS)",
      "license": "CC-BY-NC-4.0 (http://creativecommons.org/licenses/by-nc/4.0/)",
      "source": "https://sketchfab.com/3d-models/usp-s-chromatic-iii-16290d6fc7554205b4ee24c00ee749cc",
      "title": "USP-S Chromatic III"
    },
    "generator": "Sketchfab-12.66.0",
    "version": "2.0"
  },
  "bufferViews": [
    {
      "buffer": 0,
      "byteLength": 143976,
      "name": "floatBufferViews",
      "target": 34963
    },
    {
      "buffer": 0,
      "byteLength": 92208,
      "byteOffset": 143976,
      "byteStride": 8,
      "name": "floatBufferViews",
      "target": 34962
    },
    {
      "buffer": 0,
      "byteLength": 276624,
      "byteOffset": 236184,
      "byteStride": 12,
      "name": "floatBufferViews",
      "target": 34962
    }
  ],
  "buffers": [
    {
      "byteLength": 512808,
      "uri": "scene.bin"
    }
  ],
  "images": [
    {
      "uri": "textures/material_baseColor.jpeg"
    }
  ],
  "materials": [
    {
      "doubleSided": true,
      "name": "material",
      "pbrMetallicRoughness": {
        "baseColorTexture": {
          "index": 0
        },
        "metallicFactor": 0.0,
        "roughnessFactor": 0.9524317153998911
      }
    }
  ],
  "meshes": [
    {
      "name": "Object001_1_Mat_0",
      "primitives": [
        {
          "attributes": {
            "NORMAL": 1,
            "POSITION": 0,
            "TEXCOORD_0": 2
          },
          "indices": 3,
          "material": 0,
          "mode": 4
        }
      ]
    }
  ],
  "nodes": [
    {
      "children": [
        1
      ],
      "matrix": [
        1.0,
        0.0,
        0.0,
        0.0,
        0.0,
        2.220446049250313e-16,
        -1.0,
        0.0,
        0.0,
        1.0,
        2.220446049250313e-16,
        0.0,
        0.0,
        0.0,
        0.0,
        1.0
      ],
      "name": "Sketchfab_model"
    },
    {
      "children": [
        2
      ],
      "matrix": [
        1.0,
        0.0,
        0.0,
        0.0,
        0.0,
        0.0,
        1.0,
        0.0,
        0.0,
        -1.0,
        0.0,
        0.0,
        0.0,
        0.0,
        0.0,
        1.0
      ],
      "name": "f03066e9fbe34f7a970d699a9e864e64.fbx"
    },
    {
      "children": [
        3,
        5
      ],
      "name": "RootNode"
    },
    {
      "children": [
        4
      ],
      "matrix": [
        -0.6667539179723694,
        -0.3329841223496842,
        -0.6667539179723697,
        0.0,
        -0.23545533094091264,
        0.9429324335619231,
        -0.2354553309409128,
        0.0,
        0.7071067811865478,
        -4.163336342344337e-17,
        -0.7071067811865472,
        0.0,
        15.060001373291016,
        9.069965362548828,
        24.72195053100586,
        1.0
      ],
      "name": "CINEMA_4D_Editor"
    },
    {
      "name": "Object_4"
    },
    {
      "children": [
        6
      ],
      "name": "Object001_1"
    },
    {
      "mesh": 0,
      "name": "Object001_1_Mat_0"
    }
  ],
  "samplers": [
    {
      "magFilter": 9729,
      "minFilter": 9987,
      "wrapS": 10497,
      "wrapT": 10497
    }
  ],
  "scene": 0,
  "scenes": [
    {
      "name": "Sketchfab_Scene",
      "nodes": [
        0
      ]
    }
  ],
  "textures": [
    {
      "sampler": 0,
      "source": 0
    }
  ]
}
