{
  "accessors": [
    {
      "bufferView": 2,
      "componentType": 5126,
      "count": 10535,
      "max": [
        1.4377998113632202,
        7.158998966217041,
        17.67961883544922
      ],
      "min": [
        -1.4378002882003784,
        -6.276401042938232,
        -17.494380950927734
      ],
      "type": "VEC3"
    },
    {
      "bufferView": 2,
      "byteOffset": 126420,
      "componentType": 5126,
      "count": 10535,
      "max": [
        1.0,
        1.0,
        1.0
      ],
      "min": [
        -1.0,
        -1.0,
        -1.0
      ],
      "type": "VEC3"
    },
    {
      "bufferView": 3,
      "componentType": 5126,
      "count": 10535,
      "max": [
        1.0,
        1.0,
        1.0,
        1.0
      ],
      "min": [
        -1.0,
        -1.0,
        -1.0,
        -1.0
      ],
      "type": "VEC4"
    },
    {
      "bufferView": 1,
      "componentType": 5126,
      "count": 10535,
      "max": [
        2.9944000244140625,
        0.9962000250816345
      ],
      "min": [
        -4.026299953460693,
        -0.5449000000953674
      ],
      "type": "VEC2"
    },
    {
      "bufferView": 1,
      "byteOffset": 84280,
      "componentType": 5126,
      "count": 10535,
      "max": [
        2.9944000244140625,
        0.9962000250816345
      ],
      "min": [
        -4.026299953460693,
        -0.5449000000953674
      ],
      "type": "VEC2"
    },
    {
      "bufferView": 1,
      "byteOffset": 168560,
      "componentType": 5126,
      "count": 10535,
      "max": [
        2.9944000244140625,
        0.9962000250816345
      ],
      "min": [
        -4.026299953460693,
        -0.5449000000953674
      ],
      "type": "VEC2"
    },
    {
      "bufferView": 0,
      "componentType": 5125,
      "count": 31152,
      "type": "SCALAR"
    }
  ],
  "asset": {
    "extras": {
      "author": "AnshiNoWara (https://sketchfab.com/AnshiNoWara)",
      "license": "CC-BY-4.0 (http://creativecommons.org/licenses/by/4.0/)",
      "source": "https://sketchfab.com/3d-models/famas-outer-space-e9e795caeaa44da09e7c1742ca603501",
      "title": "Famas - Outer Space"
    },
    "generator": "Sketchfab-12.66.0",
    "version": "2.0"
  },
  "bufferViews": [
    {
      "buffer": 0,
      "byteLength": 124608,
      "name": "floatBufferViews",
      "target": 34963
    },
    {
      "buffer": 0,
      "byteLength": 252840,
      "byteOffset": 124608,
      "byteStride": 8,
      "name": "floatBufferViews",
      "target": 34962
    },
    {
      "buffer": 0,
      "byteLength": 252840,
      "byteOffset": 377448,
      "byteStride": 12,
      "name": "floatBufferViews",
      "target": 34962
    },
    {
      "buffer": 0,
      "byteLength": 168560,
      "byteOffset": 630288,
      "byteStride": 16,
      "name": "floatBufferViews",
      "target": 34962
    }
  ],
  "buffers": [
    {
      "byteLength": 798848,
      "uri": "scene.bin"
    }
  ],
  "images": [
    {
      "uri": "textures/Default_OBJ_baseColor.png"
    },
    {
      "uri": "textures/Default_OBJ_normal.png"
    }
  ],
  "materials": [
    {
      "doubleSided": true,
      "name": "Default_OBJ",
      "normalTexture": {
        "index": 1
      },
      "pbrMetallicRoughness": {
        "baseColorTexture": {
          "index": 0
        },
        "metallicFactor": 0.61,
        "roughnessFactor": 0.39
      }
    }
  ],
  "meshes": [
    {
      "name": "famas_Default OBJ_0",
      "primitives": [
        {
          "attributes": {
            "NORMAL": 1,
            "POSITION": 0,
            "TANGENT": 2,
            "TEXCOORD_0": 3,
            "TEXCOORD_1": 4,
            "TEXCOORD_2": 5
          },
          "indices": 6,
          "material": 0,
          "mode": 4
        }
      ]
    }
  ],
  "nodes": [
    {
      "children": [
        1
      ],
      "matrix": [
        1.0,
        0.0,
        0.0,
        0.0,
        0.0,
        2.220446049250313e-16,
        -1.0,
        0.0,
        0.0,
        1.0,
        2.220446049250313e-16,
        0.0,
        0.0,
        0.0,
        0.0,
        1.0
      ],
      "name": "Sketchfab_model"
    },
    {
      "children": [
        2
      ],
      "matrix": [
        0.009999999776482582,
        0.0,
        0.0,
        0.0,
        0.0,
        0.0,
        0.009999999776482582,
        0.0,
        0.0,
        -0.009999999776482582,
        0.0,
        0.0,
        0.0,
        0.0,
        0.0,
        1.0
      ],
      "name": "60f709619a364e63ba9d55baad771273.fbx"
    },
    {
      "children": [
        3
      ],
      "name": "RootNode"
    },
    {
      "children": [
        4
      ],
      "matrix": [
        7.549789959870878e-06,
        0.0,
        99.9999999999997,
        0.0,
        -1.629206991538001e-05,
        99.99999999999866,
        1.2300170586761169e-12,
        0.0,
        -99.99999999999837,
        -1.6292069915380057e-05,
        7.549789959870878e-06,
        0.0,
        0.0,
        0.0,
        0.0,
        1.0
      ],
      "name": "famas"
    },
    {
      "mesh": 0,
      "name": "famas_Default OBJ_0"
    }
  ],
  "samplers": [
    {
      "magFilter": 9729,
      "minFilter": 9987,
      "wrapS": 10497,
      "wrapT": 10497
    }
  ],
  "scene": 0,
  "scenes": [
    {
      "name": "Sketchfab_Scene",
      "nodes": [
        0
      ]
    }
  ],
  "textures": [
    {
      "sampler": 0,
      "source": 0
    },
    {
      "sampler": 0,
      "source": 1
    }
  ]
}
